<svg width="1366" height="680" viewBox="0 0 1366 680" fill="none" xmlns="http://www.w3.org/2000/svg">
<g clip-path="url(#clip0_22678_44815)">
<rect width="1366" height="680" fill="#0C0E12"/>
<g opacity="0.1">
<path d="M2 361.538C2 360.709 2.67157 360.038 3.5 360.038C4.32843 360.038 5 360.709 5 361.538V678.503C5 679.332 4.32843 680.003 3.5 680.003C2.67157 680.003 2 679.332 2 678.503V361.538Z" fill="#61656C"/>
<path d="M16.1562 355.768C16.1562 354.94 16.8278 354.268 17.6562 354.268C18.4847 354.268 19.1562 354.94 19.1562 355.768V678.503C19.1562 679.332 18.4847 680.003 17.6562 680.003C16.8278 680.003 16.1562 679.332 16.1562 678.503V355.768Z" fill="#61656C"/>
<path d="M30.3125 350.701C30.3125 349.873 30.9841 349.201 31.8125 349.201C32.6409 349.201 33.3125 349.873 33.3125 350.701V678.503C33.3125 679.332 32.6409 680.003 31.8125 680.003C30.9841 680.003 30.3125 679.332 30.3125 678.503V350.701Z" fill="#61656C"/>
<path d="M44.4688 346.351C44.4688 345.522 45.1403 344.851 45.9688 344.851C46.7972 344.851 47.4688 345.522 47.4688 346.351V678.503C47.4688 679.332 46.7972 680.003 45.9688 680.003C45.1403 680.003 44.4688 679.332 44.4688 678.503V346.351Z" fill="#61656C"/>
<path d="M58.625 342.676C58.625 341.848 59.2966 341.176 60.125 341.176C60.9534 341.176 61.625 341.848 61.625 342.676V678.503C61.625 679.332 60.9534 680.003 60.125 680.003C59.2966 680.003 58.625 679.332 58.625 678.503V342.676Z" fill="#61656C"/>
<path d="M72.7812 339.595C72.7812 338.767 73.4528 338.095 74.2812 338.095C75.1097 338.095 75.7812 338.767 75.7812 339.595V678.503C75.7812 679.332 75.1097 680.003 74.2812 680.003C73.4528 680.003 72.7812 679.332 72.7812 678.503V339.595Z" fill="#61656C"/>
<path d="M86.9375 336.996C86.9375 336.168 87.6091 335.496 88.4375 335.496C89.2659 335.496 89.9375 336.168 89.9375 336.996V678.503C89.9375 679.332 89.2659 680.003 88.4375 680.003C87.6091 680.003 86.9375 679.332 86.9375 678.503V336.996Z" fill="#61656C"/>
<path d="M101.094 334.755C101.094 333.927 101.765 333.255 102.594 333.255C103.422 333.255 104.094 333.927 104.094 334.755V678.503C104.094 679.332 103.422 680.003 102.594 680.003C101.765 680.003 101.094 679.332 101.094 678.503V334.755Z" fill="#61656C"/>
<path d="M115.25 332.751C115.25 331.923 115.922 331.251 116.75 331.251C117.578 331.251 118.25 331.923 118.25 332.751V678.503C118.25 679.332 117.578 680.003 116.75 680.003C115.922 680.003 115.25 679.332 115.25 678.503V332.751Z" fill="#61656C"/>
<path d="M129.406 330.884C129.406 330.055 130.078 329.384 130.906 329.384C131.735 329.384 132.406 330.055 132.406 330.884V678.503C132.406 679.332 131.735 680.003 130.906 680.003C130.078 680.003 129.406 679.332 129.406 678.503V330.884Z" fill="#61656C"/>
<path d="M143.562 329.084C143.562 328.255 144.234 327.583 145.062 327.583C145.891 327.583 146.562 328.255 146.562 329.083V678.503C146.562 679.332 145.891 680.003 145.062 680.003C144.234 680.003 143.562 679.332 143.562 678.503V329.084Z" fill="#61656C"/>
<path d="M157.719 327.322C157.719 326.494 158.39 325.822 159.219 325.822C160.047 325.822 160.719 326.494 160.719 327.322V678.503C160.719 679.332 160.047 680.003 159.219 680.003C158.39 680.003 157.719 679.332 157.719 678.503V327.322Z" fill="#61656C"/>
<path d="M171.875 325.616C171.875 324.788 172.547 324.116 173.375 324.116C174.203 324.116 174.875 324.788 174.875 325.616V678.503C174.875 679.332 174.203 680.003 173.375 680.003C172.547 680.003 171.875 679.332 171.875 678.503V325.616Z" fill="#61656C"/>
<path d="M186.031 324.024C186.031 323.196 186.703 322.524 187.531 322.524C188.36 322.524 189.031 323.196 189.031 324.024V678.503C189.031 679.332 188.36 680.003 187.531 680.003C186.703 680.003 186.031 679.332 186.031 678.503V324.024Z" fill="#61656C"/>
<path d="M200.188 322.644C200.188 321.815 200.859 321.144 201.688 321.144C202.516 321.144 203.188 321.815 203.188 322.644V678.503C203.188 679.332 202.516 680.003 201.688 680.003C200.859 680.003 200.188 679.332 200.188 678.503V322.644Z" fill="#61656C"/>
<path d="M214.344 321.597C214.344 320.768 215.015 320.097 215.844 320.097C216.672 320.097 217.344 320.768 217.344 321.597V678.503C217.344 679.332 216.672 680.003 215.844 680.003C215.015 680.003 214.344 679.332 214.344 678.503V321.597Z" fill="#61656C"/>
<path d="M228.5 321.019C228.5 320.191 229.172 319.519 230 319.519C230.828 319.519 231.5 320.191 231.5 321.019V678.503C231.5 679.332 230.828 680.003 230 680.003C229.172 680.003 228.5 679.332 228.5 678.503V321.019Z" fill="#61656C"/>
<path d="M242.656 321.043C242.656 320.214 243.328 319.543 244.156 319.543C244.985 319.543 245.656 320.214 245.656 321.043V678.503C245.656 679.332 244.985 680.003 244.156 680.003C243.328 680.003 242.656 679.332 242.656 678.503V321.043Z" fill="#61656C"/>
<path d="M256.812 321.78C256.812 320.951 257.484 320.28 258.312 320.28C259.141 320.28 259.812 320.951 259.812 321.78V678.503C259.812 679.332 259.141 680.003 258.312 680.003C257.484 680.003 256.812 679.332 256.812 678.503V321.78Z" fill="#61656C"/>
<path d="M270.969 323.307C270.969 322.479 271.64 321.807 272.469 321.807C273.297 321.807 273.969 322.479 273.969 323.307V678.503C273.969 679.332 273.297 680.003 272.469 680.003C271.64 680.003 270.969 679.332 270.969 678.503V323.307Z" fill="#61656C"/>
<path d="M285.125 325.656C285.125 324.828 285.797 324.156 286.625 324.156C287.453 324.156 288.125 324.828 288.125 325.656V678.503C288.125 679.332 287.453 680.003 286.625 680.003C285.797 680.003 285.125 679.332 285.125 678.503V325.656Z" fill="#61656C"/>
<path d="M299.281 328.804C299.281 327.975 299.953 327.304 300.781 327.304C301.61 327.304 302.281 327.975 302.281 328.804V678.503C302.281 679.332 301.61 680.003 300.781 680.003C299.953 680.003 299.281 679.332 299.281 678.503V328.804Z" fill="#61656C"/>
<path d="M313.438 332.668C313.438 331.839 314.109 331.168 314.938 331.168C315.766 331.168 316.438 331.839 316.438 332.668V678.503C316.438 679.332 315.766 680.003 314.938 680.003C314.109 680.003 313.438 679.332 313.438 678.503V332.668Z" fill="#61656C"/>
<path d="M327.594 337.113C327.594 336.284 328.265 335.613 329.094 335.613C329.922 335.613 330.594 336.284 330.594 337.113V678.503C330.594 679.332 329.922 680.003 329.094 680.003C328.265 680.003 327.594 679.332 327.594 678.503V337.113Z" fill="#61656C"/>
<path d="M341.75 341.955C341.75 341.127 342.422 340.455 343.25 340.455C344.078 340.455 344.75 341.127 344.75 341.955V678.503C344.75 679.332 344.078 680.003 343.25 680.003C342.422 680.003 341.75 679.332 341.75 678.503V341.955Z" fill="#61656C"/>
<path d="M355.906 346.977C355.906 346.149 356.578 345.477 357.406 345.477C358.235 345.477 358.906 346.149 358.906 346.977V678.503C358.906 679.332 358.235 680.003 357.406 680.003C356.578 680.003 355.906 679.332 355.906 678.503V346.977Z" fill="#61656C"/>
<path d="M370.062 351.944C370.062 351.116 370.734 350.444 371.562 350.444C372.391 350.444 373.062 351.116 373.062 351.944V678.503C373.062 679.332 372.391 680.003 371.562 680.003C370.734 680.003 370.062 679.332 370.062 678.503V351.944Z" fill="#61656C"/>
<path d="M384.219 356.619C384.219 355.791 384.89 355.119 385.719 355.119C386.547 355.119 387.219 355.791 387.219 356.619V678.503C387.219 679.332 386.547 680.003 385.719 680.003C384.89 680.003 384.219 679.332 384.219 678.503V356.619Z" fill="#61656C"/>
<path d="M398.375 360.787C398.375 359.959 399.047 359.287 399.875 359.287C400.703 359.287 401.375 359.959 401.375 360.787V678.503C401.375 679.332 400.703 680.003 399.875 680.003C399.047 680.003 398.375 679.332 398.375 678.503V360.787Z" fill="#61656C"/>
<path d="M412.531 364.269C412.531 363.44 413.203 362.769 414.031 362.769C414.86 362.769 415.531 363.44 415.531 364.269V678.503C415.531 679.332 414.86 680.003 414.031 680.003C413.203 680.003 412.531 679.332 412.531 678.503V364.269Z" fill="#61656C"/>
<path d="M426.688 366.938C426.688 366.11 427.359 365.438 428.188 365.438C429.016 365.438 429.688 366.11 429.688 366.938V678.503C429.688 679.332 429.016 680.003 428.188 680.003C427.359 680.003 426.688 679.332 426.688 678.503V366.938Z" fill="#61656C"/>
<path d="M440.844 368.731C440.844 367.903 441.515 367.231 442.344 367.231C443.172 367.231 443.844 367.903 443.844 368.731V678.503C443.844 679.332 443.172 680.003 442.344 680.003C441.515 680.003 440.844 679.332 440.844 678.503V368.731Z" fill="#61656C"/>
<path d="M455 369.655C455 368.826 455.672 368.155 456.5 368.155C457.328 368.155 458 368.826 458 369.655V678.503C458 679.332 457.328 680.003 456.5 680.003C455.672 680.003 455 679.332 455 678.503V369.655Z" fill="#61656C"/>
<path d="M469.156 369.784C469.156 368.955 469.828 368.284 470.656 368.284C471.485 368.284 472.156 368.955 472.156 369.784V678.503C472.156 679.332 471.485 680.003 470.656 680.003C469.828 680.003 469.156 679.332 469.156 678.503V369.784Z" fill="#61656C"/>
<path d="M483.312 369.255C483.312 368.427 483.984 367.755 484.812 367.755C485.641 367.755 486.312 368.427 486.312 369.255V678.503C486.312 679.332 485.641 680.003 484.812 680.003C483.984 680.003 483.312 679.332 483.312 678.503V369.255Z" fill="#61656C"/>
<path d="M497.469 368.26C497.469 367.432 498.14 366.76 498.969 366.76C499.797 366.76 500.469 367.432 500.469 368.26V678.503C500.469 679.332 499.797 680.003 498.969 680.003C498.14 680.003 497.469 679.332 497.469 678.503V368.26Z" fill="#61656C"/>
<path d="M511.625 367.023C511.625 366.195 512.297 365.523 513.125 365.523C513.953 365.523 514.625 366.195 514.625 367.023V678.503C514.625 679.332 513.953 680.003 513.125 680.003C512.297 680.003 511.625 679.332 511.625 678.503V367.023Z" fill="#61656C"/>
<path d="M525.781 365.788C525.781 364.96 526.453 364.288 527.281 364.288C528.11 364.288 528.781 364.96 528.781 365.788V678.503C528.781 679.332 528.11 680.003 527.281 680.003C526.453 680.003 525.781 679.332 525.781 678.503V365.788Z" fill="#61656C"/>
<path d="M539.938 364.795C539.938 363.966 540.609 363.295 541.438 363.295C542.266 363.295 542.938 363.966 542.938 364.795V678.503C542.938 679.332 542.266 680.003 541.438 680.003C540.609 680.003 539.938 679.332 539.938 678.503V364.795Z" fill="#61656C"/>
<path d="M554.094 364.261C554.094 363.432 554.765 362.761 555.594 362.761C556.422 362.761 557.094 363.432 557.094 364.261V678.503C557.094 679.332 556.422 680.003 555.594 680.003C554.765 680.003 554.094 679.332 554.094 678.503V364.261Z" fill="#61656C"/>
<path d="M568.25 364.364C568.25 363.536 568.922 362.864 569.75 362.864C570.578 362.864 571.25 363.536 571.25 364.364V678.503C571.25 679.332 570.578 680.003 569.75 680.003C568.922 680.003 568.25 679.332 568.25 678.503V364.364Z" fill="#61656C"/>
<path d="M582.406 365.228C582.406 364.4 583.078 363.728 583.906 363.728C584.735 363.728 585.406 364.4 585.406 365.228V678.503C585.406 679.332 584.735 680.003 583.906 680.003C583.078 680.003 582.406 679.332 582.406 678.503V365.228Z" fill="#61656C"/>
<path d="M596.562 366.914C596.562 366.085 597.234 365.414 598.062 365.414C598.891 365.414 599.562 366.085 599.562 366.914V678.503C599.562 679.332 598.891 680.003 598.062 680.003C597.234 680.003 596.562 679.332 596.562 678.503V366.914Z" fill="#61656C"/>
<path d="M610.719 369.414C610.719 368.585 611.39 367.914 612.219 367.914C613.047 367.914 613.719 368.585 613.719 369.414V678.503C613.719 679.332 613.047 680.003 612.219 680.003C611.39 680.003 610.719 679.332 610.719 678.503V369.414Z" fill="#61656C"/>
<path d="M624.875 372.657C624.875 371.829 625.547 371.157 626.375 371.157C627.203 371.157 627.875 371.829 627.875 372.657V678.503C627.875 679.332 627.203 680.003 626.375 680.003C625.547 680.003 624.875 679.332 624.875 678.503V372.657Z" fill="#61656C"/>
<path d="M639.031 376.516C639.031 375.688 639.703 375.016 640.531 375.016C641.36 375.016 642.031 375.688 642.031 376.516V678.503C642.031 679.332 641.36 680.003 640.531 680.003C639.703 680.003 639.031 679.332 639.031 678.503V376.516Z" fill="#61656C"/>
<path d="M653.188 380.818C653.188 379.99 653.859 379.318 654.688 379.318C655.516 379.318 656.188 379.99 656.188 380.818V678.503C656.188 679.332 655.516 680.003 654.688 680.003C653.859 680.003 653.188 679.332 653.188 678.503V380.818Z" fill="#61656C"/>
<path d="M667.344 385.361C667.344 384.532 668.015 383.861 668.844 383.861C669.672 383.861 670.344 384.532 670.344 385.361V678.503C670.344 679.332 669.672 680.003 668.844 680.003C668.015 680.003 667.344 679.332 667.344 678.503V385.361Z" fill="#61656C"/>
<path d="M681.5 389.932C681.5 389.104 682.172 388.432 683 388.432C683.828 388.432 684.5 389.104 684.5 389.932V678.503C684.5 679.332 683.828 680.003 683 680.003C682.172 680.003 681.5 679.332 681.5 678.503V389.932Z" fill="#61656C"/>
<path d="M695.656 394.328C695.656 393.499 696.328 392.828 697.156 392.828C697.985 392.828 698.656 393.499 698.656 394.328V678.503C698.656 679.332 697.985 680.003 697.156 680.003C696.328 680.003 695.656 679.332 695.656 678.503V394.328Z" fill="#61656C"/>
<path d="M709.812 398.366C709.812 397.538 710.484 396.866 711.312 396.866C712.141 396.866 712.812 397.538 712.812 398.366V678.503C712.812 679.332 712.141 680.003 711.312 680.003C710.484 680.003 709.812 679.332 709.812 678.503V398.366Z" fill="#61656C"/>
<path d="M723.969 401.904C723.969 401.076 724.64 400.404 725.469 400.404C726.297 400.404 726.969 401.076 726.969 401.904V678.503C726.969 679.332 726.297 680.003 725.469 680.003C724.64 680.003 723.969 679.332 723.969 678.503V401.904Z" fill="#61656C"/>
<path d="M738.125 404.848C738.125 404.019 738.797 403.348 739.625 403.348C740.453 403.348 741.125 404.019 741.125 404.848V678.503C741.125 679.332 740.453 680.003 739.625 680.003C738.797 680.003 738.125 679.332 738.125 678.503V404.848Z" fill="#61656C"/>
<path d="M752.281 407.152C752.281 406.324 752.953 405.652 753.781 405.652C754.61 405.652 755.281 406.324 755.281 407.152V678.503C755.281 679.332 754.61 680.003 753.781 680.003C752.953 680.003 752.281 679.332 752.281 678.503V407.152Z" fill="#61656C"/>
<path d="M766.438 408.827C766.438 407.999 767.109 407.327 767.938 407.327C768.766 407.327 769.438 407.999 769.438 408.827V678.503C769.438 679.332 768.766 680.003 767.938 680.003C767.109 680.003 766.438 679.332 766.438 678.503V408.827Z" fill="#61656C"/>
<path d="M780.594 409.928C780.594 409.099 781.265 408.428 782.094 408.428C782.922 408.428 783.594 409.099 783.594 409.928V678.503C783.594 679.332 782.922 680.003 782.094 680.003C781.265 680.003 780.594 679.332 780.594 678.503V409.928Z" fill="#61656C"/>
<path d="M794.75 410.544C794.75 409.715 795.422 409.044 796.25 409.044C797.078 409.044 797.75 409.715 797.75 410.544V678.503C797.75 679.332 797.078 680.003 796.25 680.003C795.422 680.003 794.75 679.332 794.75 678.503V410.544Z" fill="#61656C"/>
<path d="M808.906 410.787C808.906 409.959 809.578 409.287 810.406 409.287C811.235 409.287 811.906 409.959 811.906 410.787V678.503C811.906 679.332 811.235 680.003 810.406 680.003C809.578 680.003 808.906 679.332 808.906 678.503V410.787Z" fill="#61656C"/>
<path d="M823.062 410.779C823.062 409.95 823.734 409.279 824.562 409.279C825.391 409.279 826.062 409.95 826.062 410.779V678.503C826.062 679.332 825.391 680.003 824.562 680.003C823.734 680.003 823.062 679.332 823.062 678.503V410.779Z" fill="#61656C"/>
<path d="M837.219 410.627C837.219 409.798 837.89 409.127 838.719 409.127C839.547 409.127 840.219 409.798 840.219 410.627V678.503C840.219 679.332 839.547 680.003 838.719 680.003C837.89 680.003 837.219 679.332 837.219 678.503V410.627Z" fill="#61656C"/>
<path d="M851.375 410.418C851.375 409.589 852.047 408.918 852.875 408.918C853.703 408.918 854.375 409.589 854.375 410.418V678.503C854.375 679.332 853.703 680.003 852.875 680.003C852.047 680.003 851.375 679.332 851.375 678.503V410.418Z" fill="#61656C"/>
<path d="M865.531 410.202C865.531 409.373 866.203 408.702 867.031 408.702C867.86 408.702 868.531 409.373 868.531 410.202V678.503C868.531 679.332 867.86 680.003 867.031 680.003C866.203 680.003 865.531 679.332 865.531 678.503V410.202Z" fill="#61656C"/>
<path d="M879.688 409.986C879.688 409.157 880.359 408.486 881.188 408.486C882.016 408.486 882.688 409.157 882.688 409.986V678.503C882.688 679.332 882.016 680.003 881.188 680.003C880.359 680.003 879.688 679.332 879.688 678.503V409.986Z" fill="#61656C"/>
<path d="M893.844 409.729C893.844 408.901 894.515 408.229 895.344 408.229C896.172 408.229 896.844 408.901 896.844 409.729V678.503C896.844 679.332 896.172 680.003 895.344 680.003C894.515 680.003 893.844 679.332 893.844 678.503V409.729Z" fill="#61656C"/>
<path d="M908 409.349C908 408.52 908.672 407.849 909.5 407.849C910.328 407.849 911 408.52 911 409.349V678.503C911 679.332 910.328 680.003 909.5 680.003C908.672 680.003 908 679.332 908 678.503V409.349Z" fill="#61656C"/>
<path d="M922.156 408.722C922.156 407.894 922.828 407.222 923.656 407.222C924.485 407.222 925.156 407.894 925.156 408.722V678.503C925.156 679.332 924.485 680.003 923.656 680.003C922.828 680.003 922.156 679.332 922.156 678.503V408.722Z" fill="#61656C"/>
<path d="M936.312 407.705C936.312 406.877 936.984 406.205 937.812 406.205C938.641 406.205 939.312 406.877 939.312 407.705V678.503C939.312 679.332 938.641 680.003 937.812 680.003C936.984 680.003 936.312 679.332 936.312 678.503V407.705Z" fill="#61656C"/>
<path d="M950.469 406.14C950.469 405.312 951.14 404.641 951.969 404.641C952.797 404.641 953.469 405.312 953.469 406.141V678.503C953.469 679.332 952.797 680.003 951.969 680.003C951.14 680.003 950.469 679.332 950.469 678.503V406.14Z" fill="#61656C"/>
<path d="M964.625 403.88C964.625 403.051 965.297 402.38 966.125 402.38C966.953 402.38 967.625 403.051 967.625 403.88V678.503C967.625 679.332 966.953 680.003 966.125 680.003C965.297 680.003 964.625 679.332 964.625 678.503V403.88Z" fill="#61656C"/>
<path d="M978.781 400.799C978.781 399.97 979.453 399.299 980.281 399.299C981.11 399.299 981.781 399.97 981.781 400.799V678.503C981.781 679.332 981.11 680.003 980.281 680.003C979.453 680.003 978.781 679.332 978.781 678.503V400.799Z" fill="#61656C"/>
<path d="M992.938 396.812C992.938 395.984 993.609 395.312 994.438 395.312C995.266 395.312 995.938 395.984 995.938 396.812V678.503C995.938 679.332 995.266 680.003 994.438 680.003C993.609 680.003 992.938 679.332 992.938 678.503V396.812Z" fill="#61656C"/>
<path d="M1007.09 391.89C1007.09 391.062 1007.77 390.39 1008.59 390.39C1009.42 390.39 1010.09 391.062 1010.09 391.89V678.503C1010.09 679.332 1009.42 680.003 1008.59 680.003C1007.77 680.003 1007.09 679.332 1007.09 678.503V391.89Z" fill="#61656C"/>
<path d="M1021.25 386.063C1021.25 385.235 1021.92 384.563 1022.75 384.563C1023.58 384.563 1024.25 385.235 1024.25 386.063V678.503C1024.25 679.332 1023.58 680.003 1022.75 680.003C1021.92 680.003 1021.25 679.332 1021.25 678.503V386.063Z" fill="#61656C"/>
<path d="M1035.41 379.427C1035.41 378.598 1036.08 377.927 1036.91 377.927C1037.73 377.927 1038.41 378.598 1038.41 379.427V678.503C1038.41 679.332 1037.73 680.003 1036.91 680.003C1036.08 680.003 1035.41 679.332 1035.41 678.503V379.427Z" fill="#61656C"/>
<path d="M1049.56 372.14C1049.56 371.311 1050.23 370.64 1051.06 370.64C1051.89 370.64 1052.56 371.311 1052.56 372.14V678.503C1052.56 679.332 1051.89 680.003 1051.06 680.003C1050.23 680.003 1049.56 679.332 1049.56 678.503V372.14Z" fill="#61656C"/>
<path d="M1063.72 364.416C1063.72 363.588 1064.39 362.916 1065.22 362.916C1066.05 362.916 1066.72 363.588 1066.72 364.416V678.503C1066.72 679.332 1066.05 680.003 1065.22 680.003C1064.39 680.003 1063.72 679.332 1063.72 678.503V364.416Z" fill="#61656C"/>
<path d="M1077.88 356.512C1077.88 355.684 1078.55 355.012 1079.38 355.012C1080.2 355.012 1080.88 355.684 1080.88 356.512V678.503C1080.88 679.332 1080.2 680.003 1079.38 680.003C1078.55 680.003 1077.88 679.332 1077.88 678.503V356.512Z" fill="#61656C"/>
<path d="M1092.03 348.709C1092.03 347.881 1092.7 347.209 1093.53 347.209C1094.36 347.209 1095.03 347.881 1095.03 348.709V678.503C1095.03 679.332 1094.36 680.003 1093.53 680.003C1092.7 680.003 1092.03 679.332 1092.03 678.503V348.709Z" fill="#61656C"/>
<path d="M1106.19 341.293C1106.19 340.465 1106.86 339.793 1107.69 339.793C1108.52 339.793 1109.19 340.465 1109.19 341.293V678.503C1109.19 679.332 1108.52 680.003 1107.69 680.003C1106.86 680.003 1106.19 679.332 1106.19 678.503V341.293Z" fill="#61656C"/>
<path d="M1120.34 334.537C1120.34 333.709 1121.02 333.037 1121.84 333.037C1122.67 333.037 1123.34 333.709 1123.34 334.537V678.503C1123.34 679.332 1122.67 680.003 1121.84 680.003C1121.02 680.003 1120.34 679.332 1120.34 678.503V334.537Z" fill="#61656C"/>
<path d="M1134.5 328.679C1134.5 327.85 1135.17 327.179 1136 327.179C1136.83 327.179 1137.5 327.85 1137.5 328.679V678.503C1137.5 679.332 1136.83 680.003 1136 680.003C1135.17 680.003 1134.5 679.332 1134.5 678.503V328.679Z" fill="#61656C"/>
<path d="M1148.66 323.906C1148.66 323.077 1149.33 322.406 1150.16 322.406C1150.98 322.406 1151.66 323.077 1151.66 323.906V678.503C1151.66 679.332 1150.98 680.003 1150.16 680.003C1149.33 680.003 1148.66 679.332 1148.66 678.503V323.906Z" fill="#61656C"/>
<path d="M1162.81 320.341C1162.81 319.513 1163.48 318.841 1164.31 318.841C1165.14 318.841 1165.81 319.513 1165.81 320.341V678.503C1165.81 679.332 1165.14 680.003 1164.31 680.003C1163.48 680.003 1162.81 679.332 1162.81 678.503V320.341Z" fill="#61656C"/>
<path d="M1176.97 318.038C1176.97 317.209 1177.64 316.538 1178.47 316.538C1179.3 316.538 1179.97 317.209 1179.97 318.038V678.503C1179.97 679.332 1179.3 680.003 1178.47 680.003C1177.64 680.003 1176.97 679.332 1176.97 678.503V318.038Z" fill="#61656C"/>
<path d="M1191.12 316.974C1191.12 316.146 1191.8 315.474 1192.62 315.474C1193.45 315.474 1194.12 316.146 1194.12 316.974V678.503C1194.12 679.332 1193.45 680.003 1192.62 680.003C1191.8 680.003 1191.12 679.332 1191.12 678.503V316.974Z" fill="#61656C"/>
<path d="M1205.28 317.06C1205.28 316.232 1205.95 315.56 1206.78 315.56C1207.61 315.56 1208.28 316.232 1208.28 317.06V678.503C1208.28 679.332 1207.61 680.003 1206.78 680.003C1205.95 680.003 1205.28 679.332 1205.28 678.503V317.06Z" fill="#61656C"/>
<path d="M1219.44 318.146C1219.44 317.318 1220.11 316.646 1220.94 316.646C1221.77 316.646 1222.44 317.318 1222.44 318.146V678.503C1222.44 679.332 1221.77 680.003 1220.94 680.003C1220.11 680.003 1219.44 679.332 1219.44 678.503V318.146Z" fill="#61656C"/>
<path d="M1233.59 320.036C1233.59 319.208 1234.27 318.536 1235.09 318.536C1235.92 318.536 1236.59 319.208 1236.59 320.036V678.503C1236.59 679.332 1235.92 680.003 1235.09 680.003C1234.27 680.003 1233.59 679.332 1233.59 678.503V320.036Z" fill="#61656C"/>
<path d="M1247.75 322.508C1247.75 321.68 1248.42 321.008 1249.25 321.008C1250.08 321.008 1250.75 321.68 1250.75 322.508V678.503C1250.75 679.332 1250.08 680.003 1249.25 680.003C1248.42 680.003 1247.75 679.332 1247.75 678.503V322.508Z" fill="#61656C"/>
<path d="M1261.91 325.33C1261.91 324.501 1262.58 323.83 1263.41 323.83C1264.23 323.83 1264.91 324.501 1264.91 325.33V678.503C1264.91 679.332 1264.23 680.003 1263.41 680.003C1262.58 680.003 1261.91 679.332 1261.91 678.503V325.33Z" fill="#61656C"/>
<path d="M1276.06 328.279C1276.06 327.451 1276.73 326.779 1277.56 326.779C1278.39 326.779 1279.06 327.451 1279.06 328.279V678.503C1279.06 679.332 1278.39 680.003 1277.56 680.003C1276.73 680.003 1276.06 679.332 1276.06 678.503V328.279Z" fill="#61656C"/>
<path d="M1290.22 331.164C1290.22 330.335 1290.89 329.664 1291.72 329.664C1292.55 329.664 1293.22 330.335 1293.22 331.164V678.503C1293.22 679.332 1292.55 680.003 1291.72 680.003C1290.89 680.003 1290.22 679.332 1290.22 678.503V331.164Z" fill="#61656C"/>
<path d="M1304.38 333.832C1304.38 333.003 1305.05 332.332 1305.88 332.332C1306.7 332.332 1307.38 333.003 1307.38 333.832V678.503C1307.38 679.332 1306.7 680.003 1305.88 680.003C1305.05 680.003 1304.38 679.332 1304.38 678.503V333.832Z" fill="#61656C"/>
<path d="M1318.53 336.184C1318.53 335.356 1319.2 334.684 1320.03 334.684C1320.86 334.684 1321.53 335.356 1321.53 336.184V678.503C1321.53 679.332 1320.86 680.003 1320.03 680.003C1319.2 680.003 1318.53 679.332 1318.53 678.503V336.184Z" fill="#61656C"/>
<path d="M1332.69 338.179C1332.69 337.35 1333.36 336.679 1334.19 336.679C1335.02 336.679 1335.69 337.35 1335.69 338.179V678.503C1335.69 679.332 1335.02 680.003 1334.19 680.003C1333.36 680.003 1332.69 679.332 1332.69 678.503V338.179Z" fill="#61656C"/>
<path d="M1346.84 339.827C1346.84 338.999 1347.52 338.327 1348.34 338.327C1349.17 338.327 1349.84 338.999 1349.84 339.827V678.503C1349.84 679.332 1349.17 680.003 1348.34 680.003C1347.52 680.003 1346.84 679.332 1346.84 678.503V339.827Z" fill="#61656C"/>
<path d="M1361 341.192C1361 340.363 1361.67 339.692 1362.5 339.692C1363.33 339.692 1364 340.363 1364 341.192V678.503C1364 679.332 1363.33 680.003 1362.5 680.003C1361.67 680.003 1361 679.332 1361 678.503V341.192Z" fill="#61656C"/>
</g>
</g>
<defs>
<clipPath id="clip0_22678_44815">
<rect width="1366" height="680" fill="white"/>
</clipPath>
</defs>
</svg>
